<svg width="24" height="24" viewBox="0 0 24 24" fill="none" xmlns="http://www.w3.org/2000/svg">
<path fill-rule="evenodd" clip-rule="evenodd" d="M12.7045 3.69534C12.7045 3.31131 12.3891 3 12 3C11.6109 3 11.2955 3.31131 11.2955 3.69534V3.96878C10.875 4.01728 10.4588 4.1062 10.0537 4.2352C7.94323 4.90718 6.29399 6.59279 5.70994 8.71011L5.15103 10.7363L4.70842 12.7052C4.66944 12.8787 4.62159 13.0703 4.57131 13.2718C4.46693 13.6899 4.35204 14.1502 4.2841 14.5766C4.26161 14.7177 4.25 14.862 4.25 15.0085C4.25 16.3231 5.18832 17.4558 6.49379 17.717L6.83911 17.7861C7.41503 17.9014 7.99392 17.9971 8.57478 18.0734C8.58018 18.0968 8.5858 18.1202 8.59164 18.1436L8.66864 18.4512C8.97314 19.6676 9.94054 20.6143 11.1756 20.9045C11.7176 21.0318 12.2824 21.0318 12.8244 20.9045C14.0595 20.6143 15.0269 19.6676 15.3314 18.4512L15.4084 18.1436C15.4142 18.1202 15.4198 18.0968 15.4252 18.0734C16.0061 17.9971 16.585 17.9014 17.1609 17.7861L17.5062 17.717C18.8117 17.4558 19.75 16.3231 19.75 15.0085C19.75 14.862 19.7384 14.7177 19.7159 14.5766C19.648 14.1502 19.5331 13.69 19.4287 13.2719C19.3784 13.0704 19.3306 12.8786 19.2916 12.7052L18.8496 10.7391L18.2982 8.67469C17.7401 6.58522 16.1478 4.91682 14.0679 4.24206C13.6236 4.09794 13.1661 4.00318 12.7045 3.95738V3.69534ZM11.502 19.5516C10.8172 19.3907 10.2733 18.8846 10.0672 18.2262C11.3539 18.321 12.6461 18.321 13.9328 18.2262C13.7267 18.8846 13.1828 19.3907 12.498 19.5516C12.1706 19.6286 11.8294 19.6286 11.502 19.5516Z" fill="white"/>
</svg>
