<svg width="24" height="24" viewBox="0 0 24 24" fill="none" xmlns="http://www.w3.org/2000/svg">
<path fill-rule="evenodd" clip-rule="evenodd" d="M14.9703 3.3437C13.0166 2.88543 10.9834 2.88543 9.02975 3.3437C6.20842 4.00549 4.0055 6.20841 3.3437 9.02975C2.88543 10.9834 2.88543 13.0166 3.3437 14.9703C4.0055 17.7916 6.20842 19.9945 9.02975 20.6563C10.9834 21.1146 13.0166 21.1146 14.9703 20.6563C17.7916 19.9945 19.9945 17.7916 20.6563 14.9703C21.1146 13.0166 21.1146 10.9834 20.6563 9.02975C19.9945 6.20842 17.7916 4.00549 14.9703 3.3437ZM12 7.57085C12.3314 7.57085 12.6 7.83948 12.6 8.17085V9.59335C12.6 9.92472 12.3314 10.1933 12 10.1933C11.6686 10.1933 11.4 9.92472 11.4 9.59335V8.17085C11.4 7.83948 11.6686 7.57085 12 7.57085ZM15.8357 9.78543C16.0014 10.0724 15.9031 10.4394 15.6161 10.605L14.3843 11.3162C14.0973 11.4819 13.7304 11.3836 13.5647 11.0966C13.399 10.8096 13.4973 10.4427 13.7843 10.277L15.0161 9.56581C15.3031 9.40013 15.6701 9.49845 15.8357 9.78543ZM8.16424 9.78543C8.32992 9.49845 8.69688 9.40013 8.98385 9.56581L10.2158 10.2771C10.5027 10.4427 10.6011 10.8097 10.4354 11.0967C10.2697 11.3836 9.90274 11.482 9.61577 11.3163L8.38385 10.605C8.09688 10.4394 7.99855 10.0724 8.16424 9.78543ZM10.4354 12.9033C10.6011 13.1903 10.5027 13.5573 10.2158 13.7229L8.98385 14.4342C8.69688 14.5999 8.32992 14.5015 8.16424 14.2146C7.99855 13.9276 8.09688 13.5606 8.38385 13.395L9.61577 12.6837C9.90274 12.518 10.2697 12.6164 10.4354 12.9033ZM13.5647 12.9034C13.7304 12.6164 14.0973 12.5181 14.3843 12.6838L15.6161 13.395C15.9031 13.5606 16.0014 13.9276 15.8357 14.2146C15.6701 14.5015 15.3031 14.5999 15.0161 14.4342L13.7843 13.723C13.4973 13.5573 13.399 13.1904 13.5647 12.9034ZM12 13.8068C12.3314 13.8068 12.6 14.0754 12.6 14.4068V15.8291C12.6 16.1605 12.3314 16.4291 12 16.4291C11.6686 16.4291 11.4 16.1605 11.4 15.8291L11.4 14.4068C11.4 14.0754 11.6686 13.8068 12 13.8068Z" fill="white"/>
</svg>
