<svg width="24" height="24" viewBox="0 0 24 24" fill="none" xmlns="http://www.w3.org/2000/svg">
<path fill-rule="evenodd" clip-rule="evenodd" d="M13.4822 3.95133C15.51 4.42655 17.1316 5.91484 17.6838 7.83499L18.458 7.37444C20.4352 6.1981 23 7.55122 23 9.77073L23 14.5944C23 16.6951 20.6776 18.0613 18.7037 17.1219L17.5485 16.572C16.8965 18.2938 15.3643 19.6076 13.4822 20.0487C10.9345 20.6457 8.24347 20.653 5.69246 20.0551C3.59198 19.5629 1.96547 17.9809 1.49366 15.9713L1.42818 15.6925C0.857273 13.2608 0.857274 10.7392 1.42818 8.30754L1.49366 8.02865C1.96547 6.0191 3.59198 4.43714 5.69246 3.94488C8.24347 3.34704 10.9345 3.35426 13.4822 3.95133ZM17.9906 14.8481C18.3134 13.1277 18.3414 11.3698 18.0745 9.64278L19.4213 8.84156C20.188 8.38543 21.1825 8.9101 21.1825 9.77073L21.1825 14.5944C21.1825 15.4089 20.2819 15.9387 19.5166 15.5744L17.9906 14.8481Z" fill="white"/>
</svg>
