<svg width="24" height="24" viewBox="0 0 24 24" fill="none" xmlns="http://www.w3.org/2000/svg">
<path d="M8.01274 11.5354C8.28867 13.3882 9.69144 14.8306 11.4618 15.0818L11.5732 15.0976C11.8593 15.1382 12.1492 15.1382 12.4353 15.0976L12.5318 15.0839C14.3104 14.8315 15.719 13.381 15.9934 11.5191C16.2329 9.89423 16.2328 8.23912 15.9932 6.61428C15.7189 4.75331 14.3126 3.30082 12.5353 3.04484L12.4417 3.03136C12.1514 2.98955 11.8571 2.98955 11.5668 3.03136L11.4583 3.04699C9.68928 3.30177 8.28872 4.74606 8.01293 6.59791C7.76936 8.2334 7.76917 9.89995 8.01274 11.5354Z" fill="white"/>
<path d="M5.95161 11.0953C5.95161 10.6745 5.62666 10.3334 5.22581 10.3334C4.82495 10.3334 4.5 10.6745 4.5 11.0953C4.5 15.1864 7.47261 18.5487 11.2742 18.9319V20.2381C11.2742 20.6589 11.5991 21 12 21C12.4009 21 12.7258 20.6589 12.7258 20.2381V18.9319C16.5274 18.5487 19.5 15.1864 19.5 11.0953C19.5 10.6745 19.175 10.3334 18.7742 10.3334C18.3733 10.3334 18.0484 10.6745 18.0484 11.0953C18.0484 14.6018 15.3404 17.4445 12 17.4445C8.65957 17.4445 5.95161 14.6018 5.95161 11.0953Z" fill="white"/>
</svg>
