<svg width="24" height="24" viewBox="0 0 24 24" fill="none" xmlns="http://www.w3.org/2000/svg">
<path d="M8.68955 6.55636C8.55628 6.69312 8.37456 6.7701 8.18495 6.7701H7.5094C6.65869 6.7701 5.81403 6.91506 5.01071 7.19893C3.476 7.74126 2.35915 9.09465 2.10328 10.7221L2.0964 10.7659C1.96787 11.5835 1.96787 12.4165 2.0964 13.2341L2.10328 13.2779C2.35915 14.9054 3.476 16.2587 5.01071 16.8011C5.81403 17.0849 6.65869 17.2299 7.5094 17.2299H8.18495C8.37456 17.2299 8.55628 17.3069 8.68955 17.4436L9.18527 17.9524C11.0953 19.9125 14.3855 18.9854 15.0244 16.3069C15.6994 13.4764 15.6994 10.5236 15.0244 7.69307C14.3855 5.01464 11.0953 4.08747 9.18526 6.04763L8.68955 6.55636Z" fill="white"/>
<path fill-rule="evenodd" clip-rule="evenodd" d="M21.7615 9.76454C22.0795 10.087 22.0795 10.6099 21.7615 10.9324L20.7086 12L21.7615 13.0676C22.0795 13.3901 22.0795 13.913 21.7615 14.2355C21.4435 14.5579 20.9278 14.5579 20.6098 14.2355L19.5569 13.1678L18.5041 14.2355C18.1861 14.5579 17.6704 14.5579 17.3524 14.2355C17.0344 13.913 17.0344 13.3901 17.3524 13.0676L18.4053 12L17.3524 10.9324C17.0344 10.6099 17.0344 10.087 17.3524 9.76455C17.6704 9.44206 18.1861 9.44206 18.5041 9.76455L19.5569 10.8322L20.6098 9.76454C20.9278 9.44205 21.4435 9.44205 21.7615 9.76454Z" fill="white"/>
</svg>
