<svg width="24" height="24" viewBox="0 0 24 24" fill="none" xmlns="http://www.w3.org/2000/svg">
<path d="M8.34508 6.55636C8.21867 6.69312 8.04631 6.7701 7.86646 6.7701H7.2257C6.4188 6.7701 5.61763 6.91506 4.85568 7.19893C3.39999 7.74126 2.34065 9.09465 2.09796 10.7221L2.09144 10.7659C1.96952 11.5835 1.96952 12.4165 2.09144 13.2341L2.09796 13.2779C2.34065 14.9054 3.39999 16.2587 4.85568 16.8011C5.61763 17.0849 6.4188 17.2299 7.2257 17.2299H7.86646C8.04631 17.2299 8.21867 17.3069 8.34508 17.4436L8.81527 17.9524C10.627 19.9125 13.7478 18.9854 14.3537 16.3069C14.994 13.4764 14.994 10.5236 14.3537 7.69307C13.7478 5.01464 10.627 4.08747 8.81527 6.04763L8.34508 6.55636Z" fill="white"/>
<path d="M18.5748 5.96567C18.8482 5.61556 19.3353 5.56866 19.6628 5.86092C21.1111 7.15342 22 9.46654 22 12C22 14.5335 21.1111 16.8466 19.6628 18.1391C19.3353 18.4314 18.8482 18.3845 18.5748 18.0344C18.3015 17.6842 18.3453 17.1635 18.6728 16.8712C19.6872 15.966 20.4552 14.1713 20.4552 12C20.4552 9.8287 19.6872 8.03405 18.6728 7.12879C18.3453 6.83653 18.3015 6.31578 18.5748 5.96567Z" fill="white"/>
<path d="M17.537 9.11123C17.1822 8.85795 16.7026 8.96008 16.4657 9.33935C16.2288 9.71862 16.3243 10.2314 16.6791 10.4847C17.0621 10.7581 17.3655 11.3109 17.3655 12C17.3655 12.6891 17.0621 13.2419 16.6791 13.5154C16.3243 13.7686 16.2288 14.2814 16.4657 14.6607C16.7026 15.0399 17.1822 15.1421 17.537 14.8888C18.3853 14.2832 18.9103 13.1928 18.9103 12C18.9103 10.8072 18.3853 9.71686 17.537 9.11123Z" fill="white"/>
</svg>
