<svg width="24" height="24" viewBox="0 0 24 24" fill="none" xmlns="http://www.w3.org/2000/svg">
<path fill-rule="evenodd" clip-rule="evenodd" d="M18.3978 9.33933C18.65 8.96006 19.1605 8.85793 19.5382 9.11121C20.4411 9.71684 21 10.8072 21 12C21 13.1928 20.4411 14.2831 19.5382 14.8888C19.1605 15.1421 18.65 15.0399 18.3978 14.6607C18.1456 14.2814 18.2473 13.7686 18.6249 13.5153C19.0327 13.2419 19.3556 12.6891 19.3556 12C19.3556 11.3109 19.0327 10.7581 18.6249 10.4847C18.2473 10.2314 18.1456 9.7186 18.3978 9.33933Z" fill="white"/>
<path d="M9.75394 6.55636C9.61938 6.69312 9.43592 6.7701 9.24448 6.7701H8.56243C7.70353 6.7701 6.85075 6.91506 6.03969 7.19893C4.4902 7.74126 3.3626 9.09465 3.10428 10.7221L3.09733 10.7659C2.96756 11.5835 2.96756 12.4165 3.09733 13.2341L3.10427 13.2779C3.3626 14.9054 4.4902 16.2587 6.03969 16.8011C6.85075 17.0849 7.70353 17.2299 8.56243 17.2299H9.24448C9.43592 17.2299 9.61938 17.3069 9.75394 17.4436L10.2544 17.9524C12.1829 19.9125 15.5048 18.9854 16.1497 16.3069C16.8313 13.4764 16.8313 10.5236 16.1497 7.69307C15.5048 5.01464 12.1828 4.08747 10.2544 6.04763L9.75394 6.55636Z" fill="white"/>
</svg>
